<svg xmlns="http://www.w3.org/2000/svg" width="725" height="158" viewBox="0 0 725 158" version="1.1"><path d="" stroke="none" fill="#044cc4" fill-rule="evenodd"/><path d="M 359 15.500 L 359 26 373.500 26 L 388 26 388 15.500 L 388 5 373.500 5 L 359 5 359 15.500 M 271.500 12.441 C 269.300 13.257, 266.717 14.887, 265.759 16.062 C 263.336 19.037, 261 27.439, 261 33.182 C 261 37.655, 260.821 38, 258.500 38 L 256 38 256 49.500 L 256 61 258.500 61 L 261 61 261 107 L 261 153 275.500 153 L 290 153 290 107 L 290 61 293 61 L 296 61 296 49.500 L 296 38 292.937 38 C 290.083 38, 289.895 37.778, 290.187 34.750 C 290.462 31.892, 290.832 31.523, 293.250 31.688 L 296 31.877 296 22.545 C 296 11.561, 296.455 11.985, 284 11.374 C 278.050 11.082, 274.300 11.402, 271.500 12.441 M 190.682 12.750 C 190.153 13.660, 187.726 35.368, 184.504 68 C 183.663 76.525, 182.535 87.775, 181.998 93 C 181.462 98.225, 180.326 109.475, 179.475 118 C 178.623 126.525, 177.493 137.059, 176.963 141.409 C 175.394 154.297, 173.890 153, 190.401 153 L 204.803 153 205.504 141.750 L 206.205 130.500 213.853 130.500 L 221.500 130.500 222.162 135 C 222.527 137.475, 222.864 141.826, 222.912 144.668 C 223.059 153.344, 222.449 153, 237.726 153 L 251.238 153 250.565 143.250 C 250.194 137.887, 249.488 129.900, 248.994 125.500 C 248.501 121.100, 247.606 112.325, 247.006 106 C 246.405 99.675, 245.266 88.200, 244.473 80.500 C 242.330 59.689, 241.188 48.260, 239.476 30.500 C 238.628 21.700, 237.738 13.938, 237.499 13.250 C 237.167 12.299, 231.569 12, 214.090 12 C 201.456 12, 190.922 12.338, 190.682 12.750 M 400 82.500 L 400 153 414 153 L 428 153 428 121.500 L 428 90 434.500 90 L 441 90 441 121.500 L 441 153 455 153 L 469 153 469 82.500 L 469 12 455 12 L 441 12 441 37 L 441 62 434.500 62 L 428 62 428 37 L 428 12 414 12 L 400 12 400 82.500 M 481 82.413 L 481 153 495.500 153 L 510 153 510 120.955 L 510 88.909 513.750 89.585 C 515.813 89.957, 518.063 90.707, 518.750 91.253 C 519.701 92.007, 520 99.516, 520 122.622 L 520 153 533.912 153 L 547.824 153 548.438 149.250 C 548.775 147.188, 548.927 133.350, 548.776 118.500 C 548.519 93.370, 548.355 91.223, 546.413 87.500 C 545.265 85.300, 542.965 82.575, 541.303 81.444 L 538.279 79.387 541.725 77.129 C 543.935 75.680, 546.066 72.913, 547.671 69.408 C 550.068 64.171, 550.157 63.280, 549.826 47.723 C 549.521 33.372, 549.217 30.924, 547.192 26.512 C 544.393 20.416, 541.727 17.462, 536.500 14.665 C 532.767 12.668, 530.780 12.502, 506.750 12.175 L 481 11.826 481 82.413 M 343.500 33.417 C 340.408 34.798, 336.103 38.985, 334.164 42.500 C 333.254 44.150, 333.055 43.494, 333.030 38.750 L 333 33 318.500 33 L 304 33 304 93 L 304 153 318.490 153 L 332.980 153 333.240 106.750 L 333.500 60.500 339 58.760 C 342.025 57.802, 346.637 56.762, 349.250 56.448 L 354 55.877 354 43.939 L 354 32 350.250 32.039 C 348.188 32.061, 345.150 32.681, 343.500 33.417 M 359 93 L 359 153 373.500 153 L 388 153 388 93 L 388 33 373.500 33 L 359 33 359 93 M 212.710 45 C 212.091 52.400, 211.007 65.819, 208.366 98.750 L 207.705 107 213.982 107 L 220.258 107 219.568 100.896 C 219.188 97.539, 218.476 90.001, 217.987 84.146 C 216.399 65.173, 214.964 49.645, 214.185 43 L 213.422 36.500 212.710 45 M 510 51.445 L 510 64 514.551 64 C 518.799 64, 519.199 63.769, 520.551 60.532 C 522.328 56.279, 522.422 45.397, 520.711 42 C 519.678 39.948, 518.605 39.445, 514.726 39.195 L 510 38.890 510 51.445" stroke="none" fill="#0454c4" fill-rule="evenodd"/></svg>