<svg xmlns="http://www.w3.org/2000/svg" width="725" height="158" viewBox="0 0 725 158" version="1.1"><path d="M 402 82 L 402 158 418 158 L 434 158 434 124.500 L 434 91 440.500 91 L 447 91 447 124.500 L 447 158 463 158 L 479 158 479 82 L 479 6 463 6 L 447 6 447 33.500 L 447 61 440.500 61 L 434 61 434 33.500 L 434 6 418 6 L 402 6 402 82 M 492 81.944 L 492 158 508 158 L 524 158 524 124.500 L 524 91 527.429 91 C 534.075 91, 534 90.599, 534 126.071 L 534 158 550.050 158 L 566.100 158 565.800 124.750 L 565.500 91.500 562.788 86.887 C 561.131 84.069, 558.873 81.776, 556.982 80.992 L 553.887 79.711 557.090 78.160 C 561.276 76.132, 565.616 69.165, 567.077 62.129 C 568.429 55.617, 567.748 33.124, 565.976 25.738 C 564.358 18.997, 559.347 11.999, 554 9.013 C 549.527 6.515, 549.329 6.498, 520.750 6.194 L 492 5.887 492 81.944 M 524 49 L 524 62 528.965 62 C 533.065 62, 534.136 61.615, 535.114 59.788 C 536.843 56.555, 537.403 45.165, 536.073 40.250 L 534.923 36 529.461 36 L 524 36 524 49" stroke="none" fill="#0454c4" fill-rule="evenodd"/><path d="M 358.215 10.250 L 358.500 20.500 374.750 20.775 L 391 21.050 391 10.525 L 391 0 374.465 -0 L 357.930 -0 358.215 10.250 M 269.500 4.461 C 268.950 4.668, 266.826 5.116, 264.779 5.458 C 256.315 6.872, 251.058 14.984, 251.022 26.684 C 251 33.771, 250.963 33.871, 248.250 34.184 L 245.500 34.500 245.219 46.750 L 244.938 59 247.969 59 L 251 59 251 108.500 L 251 158 267 158 L 283 158 283 108.711 L 283 59.421 285.750 59.461 L 288.500 59.500 288.500 47 L 288.500 34.500 285.250 34.187 C 282.864 33.957, 282 33.380, 282 32.018 C 282 28.443, 283.181 27, 286.107 27 L 289 27 289 17.078 L 289 7.155 285.750 6.146 C 282.139 5.025, 271.060 3.877, 269.500 4.461 M 172.566 7.233 C 172.354 7.930, 169.199 40, 165.553 78.500 C 161.908 117, 158.659 150.638, 158.334 153.250 L 157.742 158 173.224 158 L 188.707 158 189.353 150.349 C 189.709 146.141, 190 140.966, 190 138.849 L 190 135 198.884 135 L 207.767 135 208.407 141.750 C 208.759 145.463, 209.304 150.637, 209.618 153.250 L 210.188 158 225.188 158 L 240.188 158 239.576 153.250 C 239.240 150.637, 238.067 138.825, 236.969 127 C 234.826 103.919, 229.938 52.486, 227.181 24 L 225.487 6.500 199.219 6.233 C 178.704 6.025, 172.866 6.244, 172.566 7.233 M 344 28.154 C 339.494 29.461, 334.344 33.389, 331.919 37.366 L 330.007 40.500 330.004 34.750 L 330 29 314 29 L 298 29 298 93.500 L 298 158 314 158 L 330 158 330 108.449 L 330 58.898 333.482 57.443 C 335.397 56.643, 340.460 55.398, 344.732 54.676 L 352.500 53.364 352.500 40.432 L 352.500 27.500 350 27.319 C 348.625 27.219, 345.925 27.595, 344 28.154 M 358.667 29.667 C 358.300 30.033, 358 59.058, 358 94.167 L 358 158 374.500 158 L 391 158 391 93.500 L 391 29 375.167 29 C 366.458 29, 359.033 29.300, 358.667 29.667 M 198 35.688 C 198 37.350, 197.102 50.813, 196.005 65.605 C 194.907 80.397, 193.718 96.438, 193.361 101.250 L 192.713 110 199.162 110 L 205.611 110 204.863 102.250 C 204.451 97.987, 202.923 80.775, 201.467 64 C 199.054 36.195, 198 27.585, 198 35.688" stroke="none" fill="#fcf4f4" fill-rule="evenodd"/></svg>